<svg height="216.3" viewBox="0 0 216.3 216.3" width="216.3" xmlns="http://www.w3.org/2000/svg"><circle cx="108.1" cy="108.1" fill="#673200" r="108.1"/><g fill="#c65b00"><circle cx="108.1" cy="147.6" r="42.3"/><path d="m154.1 10.3a65.6 65.6 0 0 0 41.9 116.1 64.2 64.2 0 0 0 19.2-2.9 111.7 111.7 0 0 0 1.1-15.4 108.1 108.1 0 0 0 -62.2-97.8z"/><path d="m0 108.1a111.7 111.7 0 0 0 1.1 15.4 64 64 0 0 0 19.1 2.9 65.7 65.7 0 0 0 65.7-65.7 65.3 65.3 0 0 0 -23.8-50.4 108 108 0 0 0 -62.1 97.8z"/></g><path d="m81.4 162a37.2 37.2 0 0 0 52.7 0" fill="none" stroke="#000" stroke-linecap="round" stroke-linejoin="round" stroke-width="3"/><circle cx="108.1" cy="113" fill="#ffaaca" r="13"/></svg>